<?xml version="1.0" encoding="UTF-8"?>
<svg width="256" height="256" version="1.1" viewBox="0 0 239.99996 239.99997" xmlns="http://www.w3.org/2000/svg" xmlns:osb="http://www.openswatchbook.org/uri/2009/osb" xmlns:xlink="http://www.w3.org/1999/xlink"><defs><clipPath id="c"><path d="m2.4707 939.09v54.999h120v-54.999zm60 3.4296a25.306 25.306 0 0 1 25.305 25.305 25.306 25.306 0 0 1 -25.305 25.307 25.306 25.306 0 0 1 -25.305 -25.307 25.306 25.306 0 0 1 25.305 -25.305z" fill="#68ffff" fill-opacity=".43069" fill-rule="evenodd"/></clipPath><filter id="a" color-interpolation-filters="sRGB"><feFlood flood-color="rgb(0,0,0)" result="flood"/><feComposite in="flood" in2="SourceGraphic" operator="in" result="composite1"/><feGaussianBlur in="composite1" result="blur" stdDeviation="3"/><feGaussianBlur in="composite1" result="blur2" stdDeviation="2"/><feComposite in="blur" in2="blur2" result="doubleBlur"/><feComposite in="SourceGraphic" in2="doubleBlur" result="fbSourceGraphic"/></filter></defs><g transform="translate(0 -812.36)"><g transform="matrix(1.8525 0 0 1.8525 4.273 -900.3)" fill="#fff" filter="url(#a)"><g clip-path="url(#c)"><use transform="matrix(-1 0 0 1 124.94 0)" width="100%" height="100%" fill="#ffffff" xlink:href="#b"/><g id="b"><path d="m43.346 956.09l-40-11c1 3 4 7 6 8l34 7v-4" fill="#fff" fill-rule="evenodd"/><path d="m43.346 962.09s-36-7-36-7c1 3 3 6 6 7 0 0 30 4 30 4v-4" fill="#fff" fill-rule="evenodd"/><path d="m43.346 968.09l-31-4c1 3 4 5 7 6l24 2v-4" fill="#fff" fill-rule="evenodd"/><path d="m43.346 974.09l-26-2c1 2 4 5 8 6h18v-4" fill="#fff" fill-rule="evenodd"/><path d="m43.346 980.09h-19c1 2 5 5 8 5l11-1v-4" fill="#fff" fill-rule="evenodd"/></g></g><g><path d="m53.248 949.77s-2.4881 4.7981-2.4881 4.7981h4.8216c1.2488 0 2.6427 2.3245 4.1293 6.8512 0 0-12.567 20.98-12.567 20.98h6.0268l8.553-14.604c2.2701 7.2845 4.6937 14.604 7.1168 14.604l6.4853-5e-5 2.4878-4.798h-4.1518c-3.6161 0-8.4375-27.831-13.259-27.831l-7.1548 1e-5" fill="#fff" fill-rule="evenodd"/></g><path d="m52.652 945.11c-10.509 2.9564-18.018 10.829-18.018 22.713 0 15.344 12.493 27.836 27.836 27.836 15.344 0 27.836-12.493 27.836-27.836 0-11.884-7.5091-19.757-18.018-22.713 8.156 4.3419 14.222 13.538 14.222 22.713 0 12.608-11.432 22.775-24.04 22.775-12.608 0-24.04-10.167-24.04-22.775 0-9.1754 6.0661-18.371 14.222-22.713" color="#000000" color-rendering="auto" fill-rule="evenodd" image-rendering="auto" shape-rendering="auto" solid-color="#000000" style="isolation:auto;mix-blend-mode:normal;text-decoration-color:#000000;text-decoration-line:none;text-decoration-style:solid;text-indent:0;text-transform:none;white-space:normal"/></g></g><g transform="translate(0 112)" filter="url(#a)" stroke="#e0e0e0"><g transform="matrix(.9375 0 0 .9375 -21.771 38.368)" display="none" fill="#fff" stroke-width=".3" style="font-feature-settings:normal;font-variant-caps:normal;font-variant-ligatures:normal;font-variant-numeric:normal" aria-label="Blamod"><path d="m155.66 10.687-5.248 29.867h13.824c7.9787 0 11.477-4.352 11.477-9.344 0-2.688-1.28-5.0347-3.7547-6.1013 3.2-1.536 4.5653-4.5653 4.5653-7.6373 0-3.328-2.2187-6.784-8.2347-6.784zm10.027 11.733h-6.3147l1.1093-6.3573h7.1253c2.5173 0 3.1573 1.6213 3.1573 2.816 0 1.8347-1.4933 3.5413-5.0773 3.5413zm-1.4933 12.757h-7.0827l1.3227-7.3813h7.3813c2.7733 0 3.7547 1.4933 3.7547 3.456 0 2.5173-2.048 3.9253-5.376 3.9253z" display="none"/><path d="m176.91 40.554h5.4613l5.4613-30.805-5.8453 1.8347z" display="none"/><path d="m198.69 40.554h5.4187l2.2613-12.971c0.17066-1.024 0.29866-1.9627 0.29866-2.56 0-5.504-4.9493-6.784-7.7653-6.784-3.584 0-6.3573 1.152-8.576 2.56l0.81067 4.48c2.048-1.28 4.5227-2.176 6.8693-2.176 1.92 0 3.2427 0.81067 3.2427 2.6027 0 0.29867-0.0427 0.768-0.17067 1.3653l-0.17067 0.85333c-1.1947-0.72533-2.944-1.28-4.6933-1.28-5.76 0-9.728 3.0293-9.728 8.064 0 3.968 3.0293 6.3573 6.7413 6.3573 2.432 0 4.6507-1.024 5.8027-2.2187zm-3.9253-4.352c-1.7493 0-2.816-0.81067-2.816-2.0053 0-2.048 2.0907-2.8587 4.1813-2.8587 1.7067 0 3.072 0.34133 4.0533 0.768l-0.42667 2.304c-1.1947 0.98133-2.7307 1.792-4.992 1.792z" display="none"/><path d="m207.75 40.554h5.4613l2.2613-12.885c0.64-3.584 3.2427-4.1813 4.2667-4.1813 0.81067 0 2.6027 0.42667 2.6027 2.9867 0 0.384-0.0427 0.768-0.128 1.2373l-2.2613 12.843h5.632l2.2613-12.885c0.64-3.584 3.1147-4.1813 4.1813-4.1813 0.81067 0 2.6027 0.42667 2.6027 2.9867 0 0.384-0.0427 0.768-0.128 1.2373l-2.2613 12.843h5.632l2.432-13.696c0.128-0.72533 0.17066-1.408 0.17066-2.0053 0-4.992-3.8827-6.6133-6.528-6.6133-2.8587 0-5.12 1.0667-6.912 3.2-0.768-1.92-2.6453-3.2-4.736-3.2-2.304 0-4.3093 0.98133-5.6747 2.5173l0.34133-2.0053h-5.376z" display="none"/><path d="m251.21 41.066c6.5707 0 11.221-5.4613 11.221-13.525 0-5.5467-3.1573-9.3013-8.32-9.3013-6.8693 0-11.52 5.5467-11.52 13.269 0 6.144 2.9013 9.5573 8.6187 9.5573zm0.46933-5.376c-2.432 0-3.6267-1.7067-3.6267-4.992 0-3.968 2.2613-7.1253 5.248-7.1253 2.4747 0 3.6693 1.792 3.6693 4.9067 0 4.1813-2.2613 7.2107-5.2907 7.2107z" display="none"/><path d="m270.97 41.066c2.0907 0 3.9253-0.896 5.0773-2.4747l-0.34134 1.9627h5.376l5.4187-30.805-5.8453 1.8347-1.536 8.7467c-0.59734-1.024-1.8773-2.0907-4.3093-2.0907-5.5467 0-10.795 5.0347-10.795 13.867 0 5.3333 2.6027 8.96 6.9547 8.96zm1.92-5.3333c-2.3467 0-3.4133-1.792-3.4133-4.3947 0-4.224 2.0053-7.7653 5.632-7.7653 1.7067 0 2.7307 0.85333 3.1573 1.8347l-1.4933 8.5333c-0.85333 1.0667-2.3893 1.792-3.8827 1.792z" display="none"/></g><g transform="matrix(1.4062 0 0 1.4062 -137.9 59.902)" fill="#fff" stroke-width=".3" style="font-feature-settings:normal;font-variant-caps:normal;font-variant-ligatures:normal;font-variant-numeric:normal" aria-label="REBORN"><path d="m178.29 10.497c0-1.5493-0.896-3.416-3.7707-3.416h-4.5173l-2.296 13.067h1.624l0.98933-5.6373h2.7253l1.8293 5.6373h1.6987l-1.8853-5.712c2.576-0.37333 3.6027-2.2213 3.6027-3.9387zm-4.4613 2.5387h-3.248l0.784-4.48h3.0987c1.7173 0 2.24 1.0267 2.24 1.9973 0 1.1013-0.616 2.4827-2.8747 2.4827z"/><path d="m182.09 20.148h7.9333l0.26133-1.4747h-6.3093l0.80267-4.5547h3.8267l0.28-1.4747h-3.8453l0.70933-4.088h5.9173l0.24266-1.4747h-7.5227z"/><path d="m197.61 7.0811-2.296 13.067h4.928c3.5467 0 4.704-2.0533 4.704-3.9947 0-1.344-0.74667-2.4827-1.9973-2.8 1.1013-0.29867 2.5387-1.3253 2.5387-3.3413 0-1.456-0.87733-2.9307-3.416-2.9307zm3.192 5.5627h-2.5573l0.728-4.088h2.9493c1.5867 0 1.9787 0.84 1.9787 1.7173 0 1.3627-1.0267 2.3707-3.0987 2.3707zm-0.46667 6.0293h-3.1547l0.82134-4.592h2.8187c1.9413 0 2.5013 0.93333 2.5013 2.0347 0 1.0827-0.59734 2.5573-2.9867 2.5573z"/><path d="m214.3 20.372c4.256 0 6.384-4.3867 6.384-8.232 0-2.632-1.2693-5.2827-4.4613-5.2827-4.3307 0-6.4213 4.3867-6.4213 8.1947 0 2.7627 1.2507 5.32 4.4987 5.32zm0-1.4933c-2.0907 0-2.8933-1.848-2.8933-3.8267 0-3.0427 1.5493-6.7013 4.7787-6.7013 2.0907 0 2.8933 1.9227 2.8933 3.7893 0 3.136-1.5867 6.7387-4.7787 6.7387z"/><path d="m235.32 10.497c0-1.5493-0.896-3.416-3.7707-3.416h-4.5173l-2.296 13.067h1.624l0.98933-5.6373h2.7253l1.8293 5.6373h1.6987l-1.8853-5.712c2.576-0.37333 3.6027-2.2213 3.6027-3.9387zm-4.4613 2.5387h-3.248l0.784-4.48h3.0987c1.7173 0 2.24 1.0267 2.24 1.9973 0 1.1013-0.616 2.4827-2.8747 2.4827z"/><path d="m239.12 20.148h1.6053l1.568-8.8667c0.0373-0.24267 0.20533-1.1947 0.20533-1.2693 0.0187 0.07467 0.41067 1.0453 0.504 1.2507l3.8267 8.8853h1.5493l2.296-13.067h-1.6053l-1.6613 9.4453-0.13066 0.80267c-0.0187-0.09333-0.26134-0.69067-0.31734-0.82133l-4.032-9.4267h-1.512z"/></g><g transform="matrix(1.4062 0 0 1.4062 -151.62 -30.931)" fill="#fbfbfb" stroke-width=".3" style="font-feature-settings:normal;font-variant-caps:normal;font-variant-ligatures:normal;font-variant-numeric:normal" aria-label="Blamod"><path d="m131.11 39.467-5.248 29.867h12.971c8.0213 0 11.221-4.48 11.221-9.2587 0-2.816-1.408-5.248-4.0107-6.2293 2.944-1.2373 4.9493-4.0533 4.9493-7.6373 0-3.328-2.1333-6.7413-8.064-6.7413zm9.088 12.075h-6.144l1.28-7.3813h6.9973c2.9013 0 3.6267 1.7493 3.6267 3.2 0 2.2613-1.792 4.1813-5.76 4.1813zm-1.3227 13.099h-7.1253l1.4933-8.448h7.0827c3.328 0 4.3947 1.7067 4.3947 3.8827 0 2.4747-1.8347 4.5653-5.8453 4.5653z"/><path d="m151.86 69.333h4.8213l5.4613-30.805-5.1627 1.7067z"/><path d="m173.48 69.333h4.7787l2.304-13.355c0.17067-0.93867 0.29867-1.8347 0.29867-2.432 0-5.248-4.5653-6.528-7.3813-6.528-3.3707 0-6.144 1.1947-8.2773 2.5173l0.68267 4.0107c1.9627-1.2373 4.5227-2.2187 6.8693-2.2187 1.8773 0 3.328 0.768 3.328 2.816 0 0.34133-0.0427 0.85333-0.17067 1.4933l-0.21333 1.1093c-1.152-0.72533-2.9013-1.3653-4.9067-1.3653-5.376 0-9.5147 2.8587-9.5147 8.1067 0 3.9253 2.8587 6.3573 6.6133 6.3573 2.5173 0 4.736-1.0667 5.9307-2.2613zm-4.3093-3.7973c-1.9627 0-3.1147-1.024-3.1147-2.4747 0-2.5173 2.304-3.4987 4.6507-3.4987 1.8773 0 3.3707 0.55467 4.3093 1.024l-0.512 2.816c-1.2373 1.1093-3.0293 2.1333-5.3333 2.1333z"/><path d="m182.4 69.333h4.8213l2.304-13.099c0.64-3.5413 3.2-4.608 4.6507-4.608 1.2373 0 2.8587 0.68267 2.8587 3.2853 0 0.42667-0.0427 0.85333-0.128 1.3653l-2.304 13.056h4.992l2.304-13.099c0.59733-3.5413 3.072-4.608 4.5653-4.608 1.1947 0 2.8587 0.68267 2.8587 3.2853 0 0.42667-0.0427 0.85333-0.128 1.3653l-2.304 13.056h4.9493l2.4747-13.909c0.128-0.68267 0.17067-1.3227 0.17067-1.92 0-4.6933-3.5413-6.4853-6.4-6.4853-2.8587 0-5.12 1.1093-6.8693 3.2427-0.81066-1.9627-2.6453-3.2427-4.864-3.2427-2.2187 0-4.2667 0.93867-5.7173 2.56l0.34133-2.048h-4.736z"/><path d="m225.36 69.845c6.784 0 11.179-6.016 11.179-13.653 0-5.248-2.9013-9.1733-8.192-9.1733-6.9973 0-11.392 6.0587-11.392 13.44 0 5.76 2.7307 9.3867 8.4053 9.3867zm0.34134-4.6933c-2.688 0-3.9253-2.048-3.9253-5.2907 0-4.2667 2.3467-8.192 5.9733-8.192 2.7307 0 3.9253 2.1333 3.9253 5.248 0 4.3947-2.3467 8.2347-5.9733 8.2347z"/><path d="m245.33 69.845c2.176 0 4.0107-0.896 5.248-2.432l-0.34134 1.92h4.7787l5.4187-30.805-5.1627 1.7067-1.5787 8.8747c-0.68266-0.98133-2.048-2.0907-4.5227-2.0907-5.8027 0-10.88 5.0773-10.88 13.739 0 5.4187 2.6453 9.088 7.04 9.088zm1.5787-4.6933c-2.56 0-3.712-2.0907-3.712-4.9493 0-4.736 2.176-8.5333 6.144-8.5333 1.9627 0 3.072 1.1093 3.5413 2.176l-1.5787 9.1307c-0.896 1.152-2.56 2.176-4.3947 2.176z"/></g></g></svg>
