<?xml version="1.0" encoding="UTF-8" standalone="no"?>
<!-- Created with Inkscape (http://www.inkscape.org/) -->

<svg
   xmlns:osb="http://www.openswatchbook.org/uri/2009/osb"
   xmlns:dc="http://purl.org/dc/elements/1.1/"
   xmlns:cc="http://creativecommons.org/ns#"
   xmlns:rdf="http://www.w3.org/1999/02/22-rdf-syntax-ns#"
   xmlns:svg="http://www.w3.org/2000/svg"
   xmlns="http://www.w3.org/2000/svg"
   xmlns:xlink="http://www.w3.org/1999/xlink"
   xmlns:sodipodi="http://sodipodi.sourceforge.net/DTD/sodipodi-0.dtd"
   xmlns:inkscape="http://www.inkscape.org/namespaces/inkscape"
   inkscape:version="0.92.1 r15371"
   version="1.1"
   id="svg2"
   viewBox="0 0 119.99999 119.99999"
   height="128"
   width="128"
   sodipodi:docname="blamod_logo.svg"
   inkscape:export-filename="C:\Users\NTRF\projects\sourcemods\blamod_icon_64.png"
   inkscape:export-xdpi="48"
   inkscape:export-ydpi="48">
  <sodipodi:namedview
     inkscape:window-maximized="1"
     inkscape:window-y="-5"
     inkscape:window-x="-5"
     inkscape:window-height="1028"
     inkscape:window-width="1920"
     inkscape:snap-smooth-nodes="true"
     inkscape:snap-midpoints="true"
     inkscape:object-nodes="true"
     inkscape:snap-perpendicular="true"
     guidetolerance="10000"
     inkscape:snap-bbox="true"
     inkscape:snap-others="true"
     inkscape:guide-bbox="true"
     showguides="true"
     showgrid="true"
     inkscape:current-layer="layer2"
     inkscape:document-units="px"
     inkscape:cy="102.55728"
     inkscape:cx="32.279053"
     inkscape:zoom="2"
     inkscape:pageshadow="2"
     inkscape:pageopacity="1"
     borderopacity="1.0"
     bordercolor="#666666"
     pagecolor="#000000"
     id="base"
     inkscape:snap-nodes="true"
     inkscape:snap-intersection-paths="true"
     inkscape:snap-grids="false"
     inkscape:snap-to-guides="true"
     units="px"
     inkscape:measure-start="54.1627,84.6021"
     inkscape:measure-end="61.7944,84.6021"
     inkscape:object-paths="true">
    <inkscape:grid
       dotted="false"
       id="grid3336"
       type="xygrid"
       originx="0"
       originy="0"
       spacingx="1"
       spacingy="1" />
    <sodipodi:guide
       id="guide3344"
       orientation="0,1"
       position="31.999998,1014.9999"
       inkscape:locked="false" />
  </sodipodi:namedview>
  <defs
     id="defs4">
    <linearGradient
       osb:paint="solid"
       id="linearGradient4156">
      <stop
         id="stop4158"
         offset="0"
         style="stop-color:#000000;stop-opacity:1;" />
    </linearGradient>
    <clipPath
       clipPathUnits="userSpaceOnUse"
       id="clipPath8838">
      <g
         id="use8840"
         inkscape:label="Clip" />
    </clipPath>
    <clipPath
       clipPathUnits="userSpaceOnUse"
       id="clipPath5145">
      <path
         inkscape:connector-curvature="0"
         id="path5147"
         d="m 2.470685,939.08808 v 54.99938 H 122.47068 v -54.99938 z m 59.999995,3.42956 a 25.305617,25.305617 0 0 1 25.305174,25.30518 25.305617,25.305617 0 0 1 -25.305174,25.307 25.305617,25.305617 0 0 1 -25.305174,-25.307 25.305617,25.305617 0 0 1 25.305174,-25.30518 z"
         style="opacity:1;fill:#68ffff;fill-opacity:0.43069308;fill-rule:evenodd;stroke:none;stroke-width:3.74999976;stroke-miterlimit:4;stroke-dasharray:none;stroke-opacity:1" />
    </clipPath>
  </defs>
  <metadata
     id="metadata7">
    <rdf:RDF>
      <cc:Work
         rdf:about="">
        <dc:format>image/svg+xml</dc:format>
        <dc:type
           rdf:resource="http://purl.org/dc/dcmitype/StillImage" />
        <dc:title></dc:title>
      </cc:Work>
    </rdf:RDF>
  </metadata>
  <g
     id="layer1"
     inkscape:groupmode="layer"
     inkscape:label="Layer 1"
     transform="translate(0,-932.36215)"
     style="display:inline" />
  <g
     inkscape:label="Bottom"
     id="layer2"
     inkscape:groupmode="layer"
     transform="translate(0,-932.36215)"
     style="display:inline">
    <g
       id="g5013"
       transform="translate(-2.470685,23.274071)"
       inkscape:export-xdpi="192"
       inkscape:export-ydpi="192">
      <g
         id="g5143"
         clip-path="url(#clipPath5145)"
         inkscape:export-xdpi="320"
         inkscape:export-ydpi="320"
         style="stroke:#e0e0e0;stroke-width:0.28124997;stroke-miterlimit:4;stroke-dasharray:none;stroke-opacity:1">
        <use
           inkscape:export-ydpi="320"
           inkscape:export-xdpi="320"
           style="display:inline;stroke:#e0e0e0;stroke-width:0.28124997;stroke-miterlimit:4;stroke-dasharray:none;stroke-opacity:1"
           transform="matrix(-1,0,0,1,124.94136,0)"
           height="100%"
           width="100%"
           id="use4567"
           xlink:href="#g4518"
           y="0"
           x="0" />
        <g
           inkscape:export-ydpi="320"
           inkscape:export-xdpi="320"
           style="display:inline;stroke:#e0e0e0;stroke-width:0.28124997;stroke-miterlimit:4;stroke-dasharray:none;stroke-opacity:1"
           transform="translate(-3.1250002,4.000004)"
           id="g4518">
          <path
             style="fill:#ffffff;fill-opacity:1;fill-rule:evenodd;stroke:#e0e0e0;stroke-width:0.28124997;stroke-linecap:butt;stroke-linejoin:miter;stroke-miterlimit:4;stroke-dasharray:none;stroke-opacity:1"
             d="m 46.47068,952.08807 -40,-11 c 1,3 4,7 6,8 l 34,7 z"
             id="path3704"
             inkscape:connector-curvature="0"
             sodipodi:nodetypes="ccccc" />
          <path
             style="fill:#ffffff;fill-opacity:1;fill-rule:evenodd;stroke:#e0e0e0;stroke-width:0.28124997;stroke-linecap:butt;stroke-linejoin:miter;stroke-miterlimit:4;stroke-dasharray:none;stroke-opacity:1"
             d="m 46.47068,958.08807 -36,-7 c 1,3 3,6 6,7 l 30,4 z"
             id="path4511"
             inkscape:connector-curvature="0"
             sodipodi:nodetypes="ccccc" />
          <path
             sodipodi:nodetypes="ccccc"
             style="fill:#ffffff;fill-opacity:1;fill-rule:evenodd;stroke:#e0e0e0;stroke-width:0.28124997;stroke-linecap:butt;stroke-linejoin:miter;stroke-miterlimit:4;stroke-dasharray:none;stroke-opacity:1"
             d="m 46.47068,964.08807 -31,-4 c 1,3 4,5 7,6 l 24,2 z"
             id="path4513"
             inkscape:connector-curvature="0" />
          <path
             sodipodi:nodetypes="ccccc"
             inkscape:connector-curvature="0"
             id="path4537"
             d="m 46.47068,970.08807 -26,-2 c 1,2 4,5 8,6 h 18 z"
             style="fill:#ffffff;fill-opacity:1;fill-rule:evenodd;stroke:#e0e0e0;stroke-width:0.28124997;stroke-linecap:butt;stroke-linejoin:miter;stroke-miterlimit:4;stroke-dasharray:none;stroke-opacity:1" />
          <path
             style="fill:#ffffff;fill-opacity:1;fill-rule:evenodd;stroke:#e0e0e0;stroke-width:0.28124997;stroke-linecap:butt;stroke-linejoin:miter;stroke-miterlimit:4;stroke-dasharray:none;stroke-opacity:1"
             d="m 46.47068,976.08807 h -19 c 1,2 5,5 8,5 l 11,-1 z"
             id="path4543"
             inkscape:connector-curvature="0"
             sodipodi:nodetypes="ccccc" />
        </g>
      </g>
      <g
         style="display:none;fill:#ffffff;fill-opacity:1"
         transform="matrix(1.2652809,0,0,1.2652809,-0.25380705,922.33307)"
         inkscape:tile-y0="17.916003"
         inkscape:tile-x0="0.56890258"
         inkscape:tile-h="26.974661"
         inkscape:tile-w="42.691629"
         inkscape:tile-cy="31.403334"
         inkscape:tile-cx="21.914717"
         id="g4937">
        <path
           inkscape:tile-y0="19.484525"
           inkscape:tile-x0="3.2527865"
           inkscape:transform-center-y="-6.2588983"
           inkscape:transform-center-x="33.441856"
           inkscape:connector-curvature="0"
           d="M 36.538396,25.416568 7.0492741,18.846954 C 0.65698338,17.422872 0.72487938,17.803625 0.57886298,18.844654 0.44147748,19.82416 1.7198545,22.021215 4.7540604,23.279759 10.095877,25.49547 34.088418,27.837432 34.088418,27.837432 Z"
           style="fill:#ffffff;fill-opacity:1;fill-rule:evenodd;stroke:none;stroke-width:0.98870629;stroke-linecap:butt;stroke-linejoin:miter;stroke-opacity:1"
           id="use4649"
           inkscape:tile-cx="55.736586"
           inkscape:tile-cy="32.637267"
           inkscape:tile-w="32.77983"
           inkscape:tile-h="7.3041521" />
        <use
           x="0"
           y="0"
           inkscape:tiled-clone-of="#use4649"
           xlink:href="#use4649"
           transform="matrix(0.88632698,-0.13642362,0.19892685,0.98480775,-0.25144022,7.9177308)"
           id="use4927"
           inkscape:transform-center-x="30.428299"
           inkscape:transform-center-y="2.1467222"
           width="100%"
           height="100%"
           style="fill:#ffffff;fill-opacity:1;stroke:none" />
        <use
           x="0"
           y="0"
           inkscape:tiled-clone-of="#use4649"
           xlink:href="#use4649"
           transform="matrix(0.7517541,-0.23884628,0.39180941,0.93969262,1.0658593,15.301274)"
           id="use4929"
           inkscape:transform-center-x="26.732447"
           inkscape:transform-center-y="5.3876524"
           width="100%"
           height="100%"
           style="fill:#ffffff;fill-opacity:1;stroke:none" />
        <use
           x="0"
           y="0"
           inkscape:tiled-clone-of="#use4649"
           xlink:href="#use4649"
           transform="matrix(0.60621778,-0.30552367,0.57278704,0.8660254,3.4595291,22.332867)"
           id="use4931"
           inkscape:transform-center-x="22.63997"
           inkscape:transform-center-y="7.6491492"
           width="100%"
           height="100%"
           style="fill:#ffffff;fill-opacity:1;stroke:none" />
        <use
           x="0"
           y="0"
           inkscape:tiled-clone-of="#use4649"
           xlink:href="#use4649"
           transform="matrix(0.45962667,-0.33666314,0.73636082,0.76604444,7.0941913,28.655946)"
           id="use4933"
           inkscape:transform-center-x="18.228811"
           inkscape:transform-center-y="8.8794366"
           width="100%"
           height="100%"
           style="fill:#ffffff;fill-opacity:1;stroke:none" />
      </g>
      <use
         style="display:none;fill:#ffffff;fill-opacity:1"
         height="100%"
         width="100%"
         transform="matrix(-1,0,0,1,124.94136,0)"
         id="use4968"
         xlink:href="#g4937"
         y="0"
         x="0" />
      <g
         id="g4152"
         transform="matrix(1.2053591,0,0,1.1596159,0.13501882,922.84309)"
         style="display:inline;fill:#ffffff;fill-opacity:1;stroke:#e0e0e0;stroke-width:0.23789056;stroke-miterlimit:4;stroke-dasharray:none;stroke-opacity:1"
         inkscape:export-xdpi="320"
         inkscape:export-ydpi="320">
        <path
           style="fill:#ffffff;fill-opacity:1;fill-rule:evenodd;stroke:#e0e0e0;stroke-width:0.23789056;stroke-linecap:butt;stroke-linejoin:miter;stroke-miterlimit:4;stroke-dasharray:none;stroke-opacity:1"
           d="M 44.064206,23.223686 42,27.361328 h 4.000107 c 1.036009,0 2.192442,2.004538 3.425781,5.908203 L 39,51.361328 h 5 l 7.09581,-12.59375 c 1.883315,6.281853 3.894051,12.59375 5.904297,12.59375 l 5.380392,-4.4e-5 2.063929,-4.137601 H 61 c -3,0 -7,-24 -11,-24 z"
           id="path3338"
           inkscape:connector-curvature="0"
           sodipodi:nodetypes="ccsccccsccssc" />
      </g>
      <path
         inkscape:connector-curvature="0"
         id="path4979"
         d="m 52.652402,945.10902 c -10.508789,2.95644 -18.017899,10.82917 -18.017899,22.71327 0,15.34351 12.492659,27.83611 27.836175,27.83611 15.34353,0 27.836179,-12.4926 27.836179,-27.83611 0,-11.8841 -7.509113,-19.75683 -18.01789,-22.71327 8.155962,4.34192 14.222047,13.5379 14.222047,22.71327 0,12.60828 -11.43204,22.77511 -24.040336,22.77511 -12.608283,0 -24.040336,-10.16683 -24.040336,-22.77511 0,-9.17537 6.066098,-18.37135 14.22206,-22.71327 z"
         style="color:#000000;font-style:normal;font-variant:normal;font-weight:normal;font-stretch:normal;font-size:medium;line-height:normal;font-family:sans-serif;text-indent:0;text-align:start;text-decoration:none;text-decoration-line:none;text-decoration-style:solid;text-decoration-color:#000000;letter-spacing:normal;word-spacing:normal;text-transform:none;writing-mode:lr-tb;direction:ltr;baseline-shift:baseline;text-anchor:start;white-space:normal;clip-rule:nonzero;display:inline;overflow:visible;visibility:visible;opacity:1;isolation:auto;mix-blend-mode:normal;color-interpolation:sRGB;color-interpolation-filters:linearRGB;solid-color:#000000;solid-opacity:1;fill:#ffffff;fill-opacity:1;fill-rule:evenodd;stroke:#e0e0e0;stroke-width:0.28124997;stroke-linecap:butt;stroke-linejoin:miter;stroke-miterlimit:4;stroke-dasharray:none;stroke-dashoffset:0;stroke-opacity:1;color-rendering:auto;image-rendering:auto;shape-rendering:auto;text-rendering:auto;enable-background:accumulate"
         inkscape:export-xdpi="320"
         inkscape:export-ydpi="320" />
    </g>
  </g>
  <g
     id="layer3"
     inkscape:label="Text"
     style="display:none"
     transform="translate(0,-8.0000066)"
     inkscape:groupmode="layer">
    <g
       aria-label="Blamod"
       transform="matrix(0.93749995,0,0,0.93749995,-21.770833,38.368091)"
       style="font-style:italic;font-variant:normal;font-weight:800;font-stretch:normal;font-size:42.66666794px;line-height:125%;font-family:Overpass;-inkscape-font-specification:'Overpass, Ultra-Bold Italic';font-variant-ligatures:normal;font-variant-caps:normal;font-variant-numeric:normal;font-feature-settings:normal;text-align:start;letter-spacing:-1.5px;word-spacing:0px;writing-mode:lr-tb;text-anchor:start;display:none;fill:#ffffff;fill-opacity:1;stroke:#e0e0e0;stroke-width:0.29999998;stroke-linecap:butt;stroke-linejoin:miter;stroke-miterlimit:4;stroke-dasharray:none;stroke-opacity:1"
       id="flowRoot4532">
      <path
         d="m 155.66135,10.68737 -5.248,29.866668 h 13.824 c 7.97867,0 11.47734,-4.352001 11.47734,-9.344001 0,-2.688 -1.28,-5.034667 -3.75467,-6.101333 3.2,-1.536 4.56534,-4.565334 4.56534,-7.637334 0,-3.328 -2.21867,-6.784 -8.23467,-6.784 z m 10.02667,11.733334 h -6.31467 l 1.10934,-6.357334 h 7.12533 c 2.51733,0 3.15733,1.621334 3.15733,2.816 0,1.834667 -1.49333,3.541334 -5.07733,3.541334 z m -1.49333,12.757333 h -7.08267 l 1.32267,-7.381333 h 7.38133 c 2.77333,0 3.75467,1.493333 3.75467,3.456 0,2.517333 -2.048,3.925333 -5.376,3.925333 z"
         id="path12360"
         inkscape:connector-curvature="0"
         style="display:none" />
      <path
         d="m 176.91335,40.554038 h 5.46134 l 5.46133,-30.8053347 -5.84533,1.8346667 z"
         id="path12362"
         inkscape:connector-curvature="0"
         style="display:none" />
      <path
         d="m 198.69136,40.554038 h 5.41866 l 2.26134,-12.970667 c 0.17066,-1.024001 0.29866,-1.962667 0.29866,-2.560001 0,-5.504 -4.94933,-6.784 -7.76533,-6.784 -3.584,0 -6.35733,1.152 -8.576,2.56 l 0.81067,4.48 c 2.048,-1.28 4.52266,-2.176 6.86933,-2.176 1.92,0 3.24267,0.810667 3.24267,2.602667 0,0.298667 -0.0427,0.768 -0.17067,1.365334 l -0.17067,0.853333 c -1.19466,-0.725333 -2.944,-1.28 -4.69333,-1.28 -5.76,0 -9.728,3.029333 -9.728,8.064 0,3.968 3.02933,6.357334 6.74133,6.357334 2.432,0 4.65067,-1.024 5.80267,-2.218667 z m -3.92534,-4.352001 c -1.74933,0 -2.816,-0.810666 -2.816,-2.005333 0,-2.048 2.09067,-2.858667 4.18134,-2.858667 1.70666,0 3.072,0.341334 4.05333,0.768 l -0.42667,2.304 c -1.19466,0.981334 -2.73066,1.792 -4.992,1.792 z"
         id="path12364"
         inkscape:connector-curvature="0"
         style="display:none" />
      <path
         d="m 207.74669,40.554038 h 5.46133 l 2.26134,-12.885334 c 0.64,-3.584 3.24266,-4.181334 4.26666,-4.181334 0.81067,0 2.60267,0.426667 2.60267,2.986667 0,0.384 -0.0427,0.768 -0.128,1.237334 l -2.26133,12.842667 h 5.632 l 2.26133,-12.885334 c 0.64,-3.584 3.11467,-4.181334 4.18133,-4.181334 0.81067,0 2.60267,0.426667 2.60267,2.986667 0,0.384 -0.0427,0.768 -0.128,1.237334 l -2.26133,12.842667 h 5.632 l 2.432,-13.696001 c 0.128,-0.725333 0.17066,-1.408 0.17066,-2.005333 0,-4.992 -3.88266,-6.613334 -6.528,-6.613334 -2.85866,0 -5.12,1.066667 -6.912,3.2 -0.768,-1.92 -2.64533,-3.2 -4.736,-3.2 -2.304,0 -4.30933,0.981334 -5.67466,2.517334 l 0.34133,-2.005334 h -5.376 z"
         id="path12366"
         inkscape:connector-curvature="0"
         style="display:none" />
      <path
         d="m 251.21269,41.066038 c 6.57067,0 11.22133,-5.461334 11.22133,-13.525334 0,-5.546667 -3.15733,-9.301334 -8.32,-9.301334 -6.86933,0 -11.52,5.546667 -11.52,13.269334 0,6.144 2.90134,9.557334 8.61867,9.557334 z m 0.46933,-5.376001 c -2.432,0 -3.62666,-1.706666 -3.62666,-4.992 0,-3.968 2.26133,-7.125333 5.248,-7.125333 2.47466,0 3.66933,1.792 3.66933,4.906667 0,4.181333 -2.26133,7.210666 -5.29067,7.210666 z"
         id="path12368"
         inkscape:connector-curvature="0"
         style="display:none" />
      <path
         d="m 270.96535,41.066038 c 2.09067,0 3.92534,-0.896 5.07734,-2.474667 l -0.34134,1.962667 h 5.376 l 5.41867,-30.8053347 -5.84533,1.8346667 -1.536,8.746667 c -0.59734,-1.024 -1.87734,-2.090667 -4.30934,-2.090667 -5.54666,0 -10.79466,5.034667 -10.79466,13.866667 0,5.333334 2.60266,8.960001 6.95466,8.960001 z m 1.92,-5.333334 c -2.34666,0 -3.41333,-1.792 -3.41333,-4.394667 0,-4.224 2.00533,-7.765333 5.632,-7.765333 1.70667,0 2.73067,0.853333 3.15733,1.834666 l -1.49333,8.533334 c -0.85333,1.066667 -2.38933,1.792 -3.88267,1.792 z"
         id="path12370"
         inkscape:connector-curvature="0"
         style="display:none" />
    </g>
    <flowRoot
       transform="matrix(0.93749995,0,0,0.93749995,10.872485,71.34145)"
       style="font-style:italic;font-variant:normal;font-weight:normal;font-stretch:normal;font-size:18.66666603px;line-height:125%;font-family:Overpass;-inkscape-font-specification:'Overpass, Italic';font-variant-ligatures:normal;font-variant-caps:normal;font-variant-numeric:normal;font-feature-settings:normal;text-align:end;letter-spacing:2.5px;word-spacing:0px;writing-mode:lr-tb;text-anchor:end;fill:#ffffff;fill-opacity:1;stroke:#e0e0e0;stroke-width:0.29999998;stroke-linecap:butt;stroke-linejoin:miter;stroke-miterlimit:4;stroke-dasharray:none;stroke-opacity:1"
       id="flowRoot4531"
       xml:space="preserve"
       inkscape:export-xdpi="320"
       inkscape:export-ydpi="320"><flowRegion
         style="font-style:italic;font-variant:normal;font-weight:normal;font-stretch:normal;font-size:18.66666603px;font-family:Overpass;-inkscape-font-specification:'Overpass, Italic';font-variant-ligatures:normal;font-variant-caps:normal;font-variant-numeric:normal;font-feature-settings:normal;text-align:end;letter-spacing:2.5px;word-spacing:0px;writing-mode:lr-tb;text-anchor:end;fill:#ffffff;fill-opacity:1;stroke:#e0e0e0;stroke-width:0.29999998;stroke-miterlimit:4;stroke-dasharray:none;stroke-opacity:1"
         id="flowRegion4525"><rect
           rx="0"
           ry="8.401031e-010"
           style="font-style:italic;font-variant:normal;font-weight:normal;font-stretch:normal;font-size:18.66666603px;font-family:Overpass;-inkscape-font-specification:'Overpass, Italic';font-variant-ligatures:normal;font-variant-caps:normal;font-variant-numeric:normal;font-feature-settings:normal;text-align:end;letter-spacing:2.5px;word-spacing:0px;writing-mode:lr-tb;text-anchor:end;fill:#ffffff;fill-opacity:1;stroke:#e0e0e0;stroke-width:0.29999998;stroke-miterlimit:4;stroke-dasharray:none;stroke-opacity:1"
           y="3.8135543"
           x="132.74075"
           height="31.999998"
           width="117.33334"
           id="rect4523" /></flowRegion><flowPara
         id="flowPara12358">REBORN</flowPara></flowRoot>    <flowRoot
       xml:space="preserve"
       id="flowRoot12429"
       style="font-style:italic;font-variant:normal;font-weight:bold;font-stretch:normal;font-size:42.66666794px;line-height:125%;font-family:Overpass;-inkscape-font-specification:'Overpass, Bold Italic';font-variant-ligatures:normal;font-variant-caps:normal;font-variant-numeric:normal;font-feature-settings:normal;text-align:start;letter-spacing:-1.5px;word-spacing:0px;writing-mode:lr-tb;text-anchor:start;fill:#ffffff;fill-opacity:1;stroke:#e0e0e0;stroke-width:0.30000001;stroke-linecap:butt;stroke-linejoin:miter;stroke-miterlimit:4;stroke-dasharray:none;stroke-opacity:1"
       transform="matrix(0.93749992,0,0,0.93749992,1.7242035,10.786362)"><flowRegion
         id="flowRegion12431"
         style="font-style:italic;font-variant:normal;font-weight:bold;font-stretch:normal;font-size:42.66666794px;font-family:Overpass;-inkscape-font-specification:'Overpass, Bold Italic';font-variant-ligatures:normal;font-variant-caps:normal;font-variant-numeric:normal;font-feature-settings:normal;text-align:start;letter-spacing:-1.5px;writing-mode:lr-tb;text-anchor:start;fill:#ffffff;fill-opacity:1;stroke:#e0e0e0;stroke-width:0.30000001;stroke-miterlimit:4;stroke-dasharray:none;stroke-opacity:1"><rect
           id="rect12433"
           width="154.66669"
           height="53.333336"
           x="122.66668"
           y="31.999992"
           style="font-style:italic;font-variant:normal;font-weight:bold;font-stretch:normal;font-size:42.66666794px;font-family:Overpass;-inkscape-font-specification:'Overpass, Bold Italic';font-variant-ligatures:normal;font-variant-caps:normal;font-variant-numeric:normal;font-feature-settings:normal;text-align:start;letter-spacing:-1.5px;writing-mode:lr-tb;text-anchor:start;fill:#ffffff;fill-opacity:1;stroke:#e0e0e0;stroke-width:0.30000001;stroke-miterlimit:4;stroke-dasharray:none;stroke-opacity:1" /></flowRegion><flowPara
         id="flowPara12435">Blamod</flowPara></flowRoot>  </g>
</svg>
